<?xml version="1.0" encoding="UTF-8"?>
<svg width="62px" height="62px" viewBox="0 0 62 62" version="1.1" xmlns="http://www.w3.org/2000/svg" xmlns:xlink="http://www.w3.org/1999/xlink">
    <!-- Generator: Sketch 48.1 (47250) - http://www.bohemiancoding.com/sketch -->
    <title>Group 28</title>
    <desc>Created with Sketch.</desc>
    <defs></defs>
    <g id="首页" stroke="none" stroke-width="1" fill="none" fill-rule="evenodd" transform="translate(-775.000000, -277.000000)">
        <g id="Group-8" transform="translate(170.000000, 252.000000)">
            <g id="Stats-Block-#1-Copy-2" transform="translate(566.000000, 1.000000)">
                <g id="Base">
                    <g id="Group-28" transform="translate(40.000000, 25.000000)">
                        <circle id="Oval" stroke="#FFFFFF" cx="30" cy="30" r="30"></circle>
                        <g id="Group-27" transform="translate(15.000000, 15.000000)">
                            <path d="M20.1904762,3.96358543 C20.6375638,3.96358543 21,4.32602159 21,4.77310924 L21,21.2492997 C21,21.6963874 20.6375638,22.0588235 20.1904762,22.0588235 C19.7433885,22.0588235 19.3809524,21.6963874 19.3809524,21.2492997 L19.3809524,4.77310924 C19.3809524,4.32602159 19.7433885,3.96358543 20.1904762,3.96358543 Z M9.66666667,13.9635854 C10.1137543,13.9635854 10.4761905,14.3260216 10.4761905,14.7731092 L10.4761905,21.2492997 C10.4761905,21.6963874 10.1137543,22.0588235 9.66666667,22.0588235 C9.21957901,22.0588235 8.85714286,21.6963874 8.85714286,21.2492997 L8.85714286,14.7731092 C8.85714286,14.3260216 9.21957901,13.9635854 9.66666667,13.9635854 Z M15.3333333,9.67787115 C15.780421,9.67787115 16.1428571,10.0403073 16.1428571,10.487395 L16.1428571,21.2492997 C16.1428571,21.6963874 15.780421,22.0588235 15.3333333,22.0588235 C14.8862457,22.0588235 14.5238095,21.6963874 14.5238095,21.2492997 L14.5238095,10.487395 C14.5238095,10.0403073 14.8862457,9.67787115 15.3333333,9.67787115 Z M4.80952381,17.7731092 C5.25661146,17.7731092 5.61904762,18.1355454 5.61904762,18.5826331 L5.61904762,21.2492997 C5.61904762,21.6963874 5.25661146,22.0588235 4.80952381,22.0588235 C4.36243615,22.0588235 4,21.6963874 4,21.2492997 L4,18.5826331 C4,18.1355454 4.36243615,17.7731092 4.80952381,17.7731092 Z" id="Combined-Shape" fill="#FFFFFF"></path>
                            <polyline id="Path-10" stroke="#FFFFFF" stroke-width="2" stroke-linecap="round" stroke-linejoin="round" points="26.0262778 0.821056306 26.0262778 25.5344831 0.947587668 25.5344831"></polyline>
                        </g>
                    </g>
                </g>
            </g>
        </g>
    </g>
</svg>