<?xml version="1.0" encoding="UTF-8"?>
<svg width="62px" height="62px" viewBox="0 0 62 62" version="1.1" xmlns="http://www.w3.org/2000/svg" xmlns:xlink="http://www.w3.org/1999/xlink">
    <!-- Generator: Sketch 48.1 (47250) - http://www.bohemiancoding.com/sketch -->
    <title>Group 3</title>
    <desc>Created with Sketch.</desc>
    <defs></defs>
    <g id="首页" stroke="none" stroke-width="1" fill="none" fill-rule="evenodd" transform="translate(-492.000000, -277.000000)">
        <g id="Group-8" transform="translate(170.000000, 252.000000)">
            <g id="Stats-Block-#1-Copy" transform="translate(283.000000, 1.000000)">
                <g id="Base">
                    <g id="Group-3" transform="translate(40.000000, 25.000000)">
                        <circle id="Oval" stroke="#FFFFFF" cx="30" cy="30" r="30"></circle>
                        <g id="好房拓-4.0.0-iconfont_拷贝链接" transform="translate(16.000000, 17.000000)" fill="#FFFFFF">
                            <path d="M13.0023632,19.49161 C12.6630339,19.2864678 12.2290433,19.4082024 12.0330767,19.763512 L10.5817111,22.3954781 C10.2457361,23.0047589 9.70324783,23.4406059 9.05416486,23.6226844 C8.40511415,23.8047629 7.72713287,23.7113261 7.14519976,23.3595621 L2.67615467,20.6581009 C1.4748432,19.9319144 1.06175228,18.3178589 1.7553438,17.0600923 L6.91575497,7.70196073 C7.25172999,7.09267994 7.79421822,6.65683295 8.44330119,6.47475447 C9.09238416,6.29267599 9.77033317,6.38611277 10.3522663,6.73787678 L14.8213114,9.43933794 C15.4032445,9.79110195 15.8195284,10.3591179 15.9934343,11.0386705 C16.1673724,11.7182568 16.0780973,12.4280657 15.7421223,13.0373465 L14.935808,14.4995461 C14.7398736,14.8548558 14.8561442,15.3092416 15.195538,15.51435 C15.5349317,15.7194922 15.9688901,15.5977576 16.1648244,15.242448 L16.9711387,13.7802483 C17.4966621,12.8272741 17.6362512,11.7170411 17.364233,10.6541175 C17.0922148,9.59119382 16.4411322,8.70281832 15.5309002,8.15259822 L11.0618551,5.45113707 C9.18282036,4.31530773 6.77158599,4.99178737 5.68680305,6.95905892 L0.526391875,16.3171905 C-0.558423312,18.2844621 0.0876279151,20.809045 1.96663038,21.9448406 L6.43567547,24.6463018 C7.04202379,25.0128225 7.71481239,25.2 8.39669622,25.2 C8.73844445,25.2 9.08254712,25.152927 9.42148938,25.0578694 C10.4367035,24.7730678 11.2852041,24.0913541 11.8107275,23.1383799 L13.2620931,20.5064139 C13.4580275,20.1511042 13.341757,19.6967522 13.0023632,19.49161 Z" id="Shape" fill-rule="nonzero"></path>
                            <path d="M26.0333759,3.25517423 L21.564329,0.553714601 C20.6540966,0.0034948109 19.5937929,-0.142654155 18.5785139,0.142147226 C17.5632993,0.426948608 16.7147984,1.10866194 16.1892748,2.0616356 L14.7379086,4.69360018 C14.5419741,5.04890965 14.6582447,5.50329516 14.9976386,5.70840348 C15.3370003,5.91357934 15.770991,5.79181105 15.9669255,5.43650157 L17.4182917,2.80453699 C17.7542669,2.19525654 18.2967553,1.7594098 18.9458385,1.57733142 C19.5948573,1.39525304 20.2728388,1.48868978 20.8548044,1.84045359 L25.3238513,4.54191322 C26.5251632,5.26809933 26.9382543,6.88215392 26.2446625,8.13991976 L21.0842493,17.4980461 C20.7482741,18.1073265 20.2057857,18.5431732 19.5567024,18.7252516 C18.9076837,18.9073638 18.2297022,18.8138933 17.6477366,18.4621295 L13.1786897,15.7606698 C12.5967563,15.408906 12.1804723,14.8408904 12.0065663,14.1613382 C11.8326281,13.4817523 11.9219033,12.7719437 12.2578785,12.1626633 L13.064193,10.7004645 C13.2601275,10.345155 13.1438569,9.89076951 12.804463,9.68566119 C12.4651336,9.4805191 12.0311428,9.60225362 11.8351761,9.9575631 L11.0288615,11.4197619 C10.5033379,12.3727355 10.3637488,13.4829679 10.6357671,14.545891 C10.9077853,15.608814 11.5588682,16.497189 12.4691006,17.0474088 L16.9381475,19.7488684 C17.5563005,20.1225141 18.2317663,20.3000675 18.8989433,20.3 C20.2597765,20.2998987 21.5852609,19.5610157 22.3132017,18.2409475 L27.4736149,8.88282116 C28.5584306,6.91555072 27.9123468,4.39100293 26.0333759,3.25517423 Z" id="Shape" fill-rule="nonzero"></path>
                            <g id="Group-7" transform="translate(0.700000, 0.700000)">
                                <rect id="Rectangle-12" x="3.024" y="0" width="8.064" height="1.51914894" rx="0.759574468"></rect>
                                <rect id="Rectangle-12-Copy" x="0" y="0" width="2.016" height="1.51914894" rx="0.759574468"></rect>
                                <g id="Group-5" transform="translate(19.200000, 23.280851) scale(-1, 1) translate(-19.200000, -23.280851) translate(13.200000, 22.280851)">
                                    <rect id="Rectangle-12-Copy-2" x="3.024" y="0" width="8.064" height="1.51914894" rx="0.759574468"></rect>
                                    <rect id="Rectangle-12-Copy-3" x="0" y="0" width="2.016" height="1.51914894" rx="0.759574468"></rect>
                                </g>
                            </g>
                        </g>
                    </g>
                </g>
            </g>
        </g>
    </g>
</svg>