<?xml version="1.0" encoding="UTF-8"?>
<svg width="62px" height="62px" viewBox="0 0 62 62" version="1.1" xmlns="http://www.w3.org/2000/svg" xmlns:xlink="http://www.w3.org/1999/xlink">
    <!-- Generator: Sketch 48.1 (47250) - http://www.bohemiancoding.com/sketch -->
    <title>Group 26</title>
    <desc>Created with Sketch.</desc>
    <defs></defs>
    <g id="首页" stroke="none" stroke-width="1" fill="none" fill-rule="evenodd" transform="translate(-209.000000, -276.000000)">
        <g id="Group-8" transform="translate(170.000000, 252.000000)">
            <g id="Stats-Block-#1">
                <g id="Group" transform="translate(40.000000, 24.000000)">
                    <g id="Group-26" transform="translate(0.000000, 1.000000)">
                        <circle id="Oval" stroke="#FFFFFF" cx="30" cy="30" r="30"></circle>
                        <g id="Group-9" transform="translate(17.000000, 19.000000)" fill="#FFFFFF">
                            <g id="节点连接-(1)-copy">
                                <polygon id="Shape" fill-rule="nonzero" points="3.66666667 12 3.66666667 12 3.66666667 12 3.94666667 12"></polygon>
                                <path d="M26.3537415,12 L14.9795918,12 C14.6564626,12 14.3333333,12.3385417 14.3333333,12.6770833 L14.3333333,19.9895833 C14.3333333,20.3958333 14.6564626,20.6666667 14.9795918,20.6666667 L26.3537415,20.6666667 C26.6768707,20.6666667 27,20.3958333 27,19.9895833 L27,12.6770833 C27,12.2708333 26.6768707,12 26.3537415,12 Z M24.9965986,19.3802083 L16.3367347,19.3802083 C15.8843537,19.3802083 15.5612245,19.0416667 15.5612245,18.5677083 L15.5612245,14.0989583 C15.5612245,13.625 15.8843537,13.2864583 16.3367347,13.2864583 L24.9319728,13.2864583 C25.3843537,13.2864583 25.707483,13.625 25.707483,14.0989583 L25.707483,18.5677083 C25.707483,19.0416667 25.4489796,19.3802083 24.9965986,19.3802083 Z" id="Shape" fill-rule="nonzero"></path>
                                <path d="M11.9557823,0 L0.646258503,0 C0.258503401,0 0,0.338541667 0,0.677083333 L0,7.98958333 C0,8.39583333 0.258503401,8.66666667 0.646258503,8.66666667 L12.0204082,8.66666667 C12.4081633,8.66666667 12.6666667,8.39583333 12.6666667,7.98958333 L12.6666667,0.677083333 C12.6020408,0.270833333 12.3435374,0 11.9557823,0 Z M11.3741497,6.56770833 C11.3741497,7.04166667 11.0510204,7.38020833 10.5986395,7.38020833 L2.00340136,7.38020833 C1.55102041,7.38020833 1.22789116,7.04166667 1.22789116,6.56770833 L1.22789116,2.09895833 C1.22789116,1.625 1.55102041,1.28645833 2.00340136,1.28645833 L10.5986395,1.28645833 C11.0510204,1.28645833 11.3741497,1.625 11.3741497,2.09895833 L11.3741497,6.56770833 Z" id="Shape" fill-rule="nonzero"></path>
                                <rect id="Rectangle-7" x="3" y="10" width="5" height="1" rx="0.5"></rect>
                                <polygon id="Shape" fill-rule="nonzero" points="20 5.33333333 21 5.33333333 21 12 20 12 20 5.33333333"></polygon>
                                <path d="M20.6666667,1.33333333 C19.3541667,1.33333333 18.3333333,2.42708333 18.3333333,3.66666667 C18.3333333,4.90625 19.4270833,6 20.6666667,6 C21.9791667,6 23,4.90625 23,3.66666667 C23,2.42708333 21.9791667,1.33333333 20.6666667,1.33333333 Z M20.6666667,5.05208333 C19.9375,5.05208333 19.28125,4.46875 19.28125,3.66666667 C19.28125,2.86458333 19.8645833,2.28125 20.6666667,2.28125 C21.46875,2.28125 22.0520833,2.86458333 22.0520833,3.66666667 C22.0520833,4.46875 21.46875,5.05208333 20.6666667,5.05208333 Z" id="Shape" fill-rule="nonzero"></path>
                                <polygon id="Shape" fill-rule="nonzero" points="7 17 15 17 15 18 7 18 7 17"></polygon>
                                <rect id="Rectangle-8" x="23" y="22" width="2" height="1" rx="0.5"></rect>
                                <rect id="Rectangle-8-Copy" x="16" y="22" width="5.33333333" height="1" rx="0.5"></rect>
                                <polygon id="Shape" fill-rule="nonzero" points="11.6666667 3 19 3 19 4 11.6666667 4 11.6666667 3"></polygon>
                                <polygon id="Shape" fill-rule="nonzero" points="5 10 6 10 6 15.1666667 5 15.1666667"></polygon>
                                <path d="M5.5,15 C4.09375,15 3,16.171875 3,17.5 C3,18.828125 4.171875,20 5.5,20 C6.828125,20 8,18.828125 8,17.5 C8,16.171875 6.90625,15 5.5,15 Z M5.5,19 C4.71052632,19 4,18.3684211 4,17.5 C4,16.6315789 4.63157895,16 5.5,16 C6.36842105,16 7,16.6315789 7,17.5 C7,18.3684211 6.28947368,19 5.5,19 Z" id="Shape" fill-rule="nonzero"></path>
                            </g>
                        </g>
                    </g>
                </g>
            </g>
        </g>
    </g>
</svg>