<?xml version="1.0" encoding="utf-8"?>
<!-- Generator: Adobe Illustrator 22.0.1, SVG Export Plug-In . SVG Version: 6.00 Build 0)  -->
<svg version="1.1" id="图层_1" xmlns="http://www.w3.org/2000/svg" xmlns:xlink="http://www.w3.org/1999/xlink" x="0px" y="0px"
	 viewBox="0 0 317.5 184.3" style="enable-background:new 0 0 317.5 184.3;" xml:space="preserve">
<style type="text/css">
	.st0{fill:url(#SVGID_1_);}
	.st1{fill:url(#SVGID_2_);}
	.st2{fill:#FFFFFF;}
</style>
<g>
	<g>
		<g>
			
				<linearGradient id="SVGID_1_" gradientUnits="userSpaceOnUse" x1="-138.1538" y1="-325.0589" x2="92.657" y2="-325.0589" gradientTransform="matrix(-0.8827 -0.47 0.47 -0.8827 215.0263 -182.2929)">
				<stop  offset="0" style="stop-color:#6C7FF8"/>
				<stop  offset="1" style="stop-color:#6C7FF8;stop-opacity:0.4"/>
			</linearGradient>
			<path class="st0" d="M193.2,160.9l-1.4-49.4c-0.1-4.9-0.1-7.3-5.7-10.3c-27.6-14.7-59.9-31.9-86.5-46.1
				c-6.9-3.7-14.7-2.9-19.5-1.5L8.7,73.8C4,75-0.3,79.9,1,86.7l6.3,35.2c0.4,2.1,1.3,4.2,2.8,6.1l35.9,35.6c0,0,3.5,3.7,8.2,6.2
				c2.7,1.4,6.4,2,9.4,1.9l117.1,0C188.3,171.4,193.4,166.9,193.2,160.9z"/>
		</g>
	</g>
	<g>
		<g>
			
				<linearGradient id="SVGID_2_" gradientUnits="userSpaceOnUse" x1="-63.7027" y1="-232.4668" x2="230.5576" y2="-232.4668" gradientTransform="matrix(-0.9565 0.2918 -0.2918 -0.9565 184.591 -139.2626)">
				<stop  offset="0" style="stop-color:#6C7FF8"/>
				<stop  offset="1" style="stop-color:#6C7FF8;stop-opacity:0.4"/>
				<stop  offset="1" style="stop-color:#45C1FF;stop-opacity:0.4167"/>
			</linearGradient>
			<path class="st1" d="M313.6,48.6L267.9,5.3c-4.6-4.3-6.6-6.5-14.5-4.2c-38.2,11.6-82.8,25.2-119.5,36.5
				c-9.6,2.9-15.9,10.7-19,16.2l-46.1,82.5c-3.1,5.4-2.5,13.7,4.7,18.7l37.4,26c2.2,1.5,5,2.5,8.1,2.9l64.5-0.3c0,0,6.5,0.1,13-1.8
				c3.7-1.1,7.6-3.9,10.2-6.8L312.3,69.4C318.7,62.5,319.3,53.9,313.6,48.6z"/>
		</g>
	</g>
	<g>
		<path class="st2" d="M98.1,151.9h-6.4c-0.5,0-0.9-0.5-0.8-1l2.9-12.6c0.1-0.4,0.4-0.6,0.8-0.6h6.4c0.5,0,0.9,0.5,0.8,1l0,0
			c-0.1,0.4-0.4,0.6-0.8,0.6h-4.9c-0.4,0-0.7,0.3-0.8,0.6l-0.6,2.8c-0.1,0.5,0.3,1,0.8,1h3.9c0.5,0,0.9,0.5,0.8,1l0,0
			c-0.1,0.4-0.4,0.6-0.8,0.6h-4.6c-0.4,0-0.7,0.3-0.8,0.6l-0.7,3.3c-0.1,0.5,0.3,1,0.8,1h4.1c0.5,0,0.9,0.5,0.8,1l0,0
			C98.9,151.6,98.5,151.9,98.1,151.9z"/>
		<path class="st2" d="M111.6,151.9h-0.7c-0.3,0-0.6-0.2-0.8-0.5l-1.5-3.9c-0.2-0.6-1-0.7-1.4-0.2l-3.6,4.4
			c-0.2,0.2-0.4,0.3-0.6,0.3h-2l6.1-6.9c0.2-0.2,0.3-0.6,0.1-0.8l-2.1-5.4c-0.2-0.5,0.2-1.1,0.8-1.1h0.5c0.3,0,0.6,0.2,0.8,0.5
			l1.3,3.5c0.2,0.6,1,0.7,1.4,0.2l3.4-4c0.2-0.2,0.4-0.3,0.6-0.3h1.9l-5.6,6.5c-0.2,0.2-0.3,0.6-0.1,0.8l2.4,5.8
			C112.6,151.3,112.2,151.9,111.6,151.9z"/>
		<path class="st2" d="M126.4,142c-0.1,0.6-0.4,1.2-0.7,1.7c-0.3,0.6-0.8,1.1-1.4,1.5c-0.6,0.5-1.2,0.8-2,1.1
			c-0.8,0.3-1.7,0.4-2.6,0.4h-1.1c-0.4,0-0.7,0.3-0.8,0.6l-0.9,3.8c-0.1,0.4-0.4,0.6-0.8,0.6h-0.3c-0.5,0-0.9-0.5-0.8-1l2.9-12.6
			c0.1-0.4,0.4-0.6,0.8-0.6h3.4c0.7,0,1.4,0.1,2,0.2c0.6,0.2,1.1,0.4,1.5,0.8c0.4,0.3,0.7,0.8,0.9,1.4
			C126.6,140.6,126.6,141.2,126.4,142z M124.4,142.1c0.2-0.9,0.1-1.6-0.4-2.1c-0.5-0.5-1.3-0.7-2.3-0.7h-1.3c-0.4,0-0.7,0.3-0.8,0.6
			l-1,4.2c-0.1,0.5,0.3,1,0.8,1h0.8c1.1,0,2.1-0.3,2.8-0.8C123.6,143.9,124.1,143.1,124.4,142.1z"/>
		<path class="st2" d="M135.4,151.9h-6.5c-0.5,0-0.9-0.5-0.8-1l2.9-12.6c0.1-0.4,0.4-0.6,0.8-0.6h0.3c0.5,0,0.9,0.5,0.8,1l-2.4,10.6
			c-0.1,0.5,0.3,1,0.8,1h4.2c0.5,0,0.9,0.5,0.8,1l0,0C136.2,151.6,135.8,151.9,135.4,151.9z"/>
		<path class="st2" d="M150.9,144.7c-0.3,1.3-0.7,2.4-1.2,3.3c-0.5,0.9-1.1,1.7-1.7,2.3c-0.7,0.6-1.4,1.1-2.1,1.4
			c-0.8,0.3-1.5,0.4-2.3,0.4c-0.9,0-1.7-0.2-2.3-0.5s-1.1-0.8-1.4-1.4c-0.3-0.6-0.5-1.4-0.5-2.3c0-0.9,0.1-1.9,0.4-3
			c0.3-1.3,0.7-2.4,1.2-3.3c0.5-0.9,1.1-1.7,1.7-2.3c0.7-0.6,1.4-1.1,2.1-1.4c0.7-0.3,1.5-0.4,2.3-0.4c0.9,0,1.7,0.2,2.3,0.5
			s1.1,0.8,1.4,1.4c0.3,0.6,0.5,1.4,0.5,2.3C151.3,142.6,151.2,143.6,150.9,144.7z M148.9,144.8c0.2-0.8,0.3-1.6,0.3-2.3
			c0-0.7,0-1.3-0.2-1.8c-0.2-0.5-0.4-0.9-0.8-1.2c-0.4-0.3-0.9-0.4-1.5-0.4c-0.6,0-1.2,0.1-1.7,0.4c-0.5,0.3-1,0.7-1.4,1.2
			c-0.4,0.5-0.7,1.1-1,1.8c-0.3,0.7-0.5,1.4-0.7,2.2c-0.2,0.8-0.3,1.6-0.3,2.3c0,0.7,0,1.3,0.2,1.8s0.4,0.9,0.8,1.2
			c0.4,0.3,0.9,0.4,1.5,0.4c0.6,0,1.2-0.1,1.7-0.4c0.5-0.3,1-0.7,1.4-1.2c0.4-0.5,0.7-1.1,1-1.8
			C148.5,146.3,148.7,145.6,148.9,144.8z"/>
		<path class="st2" d="M160.3,151.9h-0.5c-0.4,0-0.7-0.3-0.8-0.6l-0.9-3.9c-0.1-0.3-0.2-0.6-0.3-0.9s-0.3-0.4-0.4-0.5
			c-0.2-0.1-0.4-0.2-0.6-0.3c-0.2-0.1-0.5-0.1-0.7-0.1h-0.9l-1.3,5.7c-0.1,0.4-0.4,0.6-0.8,0.6h-0.3c-0.5,0-0.9-0.5-0.8-1l2.9-12.6
			c0.1-0.4,0.4-0.6,0.8-0.6h3.2c0.8,0,1.5,0.1,2.1,0.3c0.6,0.2,1,0.4,1.3,0.8c0.3,0.3,0.5,0.7,0.6,1.2s0,1-0.1,1.5
			c-0.1,0.4-0.3,0.9-0.5,1.3c-0.2,0.4-0.5,0.8-0.8,1.1c-0.3,0.3-0.7,0.6-1.2,0.8c-0.4,0.2-0.9,0.4-1.4,0.5c0.4,0.1,0.7,0.4,0.9,0.7
			c0.2,0.3,0.4,0.8,0.5,1.4l0.9,3.7C161.2,151.4,160.9,151.9,160.3,151.9z M160.6,141.6c0.2-0.8,0.1-1.3-0.3-1.7
			c-0.4-0.4-1-0.6-1.9-0.6h-1.2c-0.4,0-0.7,0.3-0.8,0.6l-0.9,4.1h1.6c0.5,0,0.9-0.1,1.3-0.2c0.4-0.1,0.7-0.3,1-0.5s0.6-0.5,0.8-0.8
			C160.4,142.3,160.5,142,160.6,141.6z"/>
		<path class="st2" d="M171.8,151.9h-6.4c-0.5,0-0.9-0.5-0.8-1l2.9-12.6c0.1-0.4,0.4-0.6,0.8-0.6h6.4c0.5,0,0.9,0.5,0.8,1l0,0
			c-0.1,0.4-0.4,0.6-0.8,0.6h-4.9c-0.4,0-0.7,0.3-0.8,0.6l-0.6,2.8c-0.1,0.5,0.3,1,0.8,1h3.9c0.5,0,0.9,0.5,0.8,1l0,0
			c-0.1,0.4-0.4,0.6-0.8,0.6h-4.6c-0.4,0-0.7,0.3-0.8,0.6l-0.7,3.3c-0.1,0.5,0.3,1,0.8,1h4.1c0.5,0,0.9,0.5,0.8,1l0,0
			C172.6,151.6,172.2,151.9,171.8,151.9z"/>
		<path class="st2" d="M184.9,151.9h-0.5c-0.4,0-0.7-0.3-0.8-0.6l-0.9-3.9c-0.1-0.3-0.2-0.6-0.3-0.9s-0.3-0.4-0.4-0.5
			c-0.2-0.1-0.4-0.2-0.6-0.3c-0.2-0.1-0.5-0.1-0.8-0.1h-0.9l-1.3,5.7c-0.1,0.4-0.4,0.6-0.8,0.6h-0.3c-0.5,0-0.9-0.5-0.8-1l2.9-12.6
			c0.1-0.4,0.4-0.6,0.8-0.6h3.2c0.8,0,1.5,0.1,2.1,0.3c0.6,0.2,1,0.4,1.3,0.8c0.3,0.3,0.5,0.7,0.6,1.2s0,1-0.1,1.5
			c-0.1,0.4-0.3,0.9-0.5,1.3c-0.2,0.4-0.5,0.8-0.8,1.1c-0.3,0.3-0.7,0.6-1.2,0.8c-0.4,0.2-0.9,0.4-1.4,0.5c0.4,0.1,0.7,0.4,0.9,0.7
			c0.2,0.3,0.4,0.8,0.5,1.4l0.9,3.7C185.8,151.4,185.4,151.9,184.9,151.9z M185.2,141.6c0.2-0.8,0.1-1.3-0.3-1.7s-1-0.6-1.9-0.6
			h-1.2c-0.4,0-0.7,0.3-0.8,0.6l-0.9,4.1h1.6c0.5,0,0.9-0.1,1.3-0.2c0.4-0.1,0.7-0.3,1-0.5s0.6-0.5,0.8-0.8
			C184.9,142.3,185.1,142,185.2,141.6z"/>
	</g>
	<g>
		<path class="st2" d="M42.6,86.5l-4.9,27.9c-0.2,1.3-1.5,2.3-2.8,2.3h-0.6c-1.3,0-2.2-1.1-1.9-2.3l4.9-27.9
			c0.2-1.3,1.5-2.3,2.8-2.3h0.6C42,84.1,42.9,85.2,42.6,86.5z"/>
		<path class="st2" d="M53.5,84.1c0.8,0,1.4,0.4,1.8,1l11.5,22.5H67l3.7-21.2c0.2-1.3,1.5-2.3,2.8-2.3h0.7c1.3,0,2.2,1.1,1.9,2.3
			l-4.9,27.9c-0.2,1.3-1.5,2.3-2.8,2.3h-1.6c-0.8,0-1.4-0.4-1.8-1L53.4,92.9h-0.2l-3.7,21.5c-0.2,1.3-1.5,2.3-2.8,2.3h-0.6
			c-1.3,0-2.2-1.1-1.9-2.3L49,86.5c0.2-1.3,1.5-2.3,2.8-2.3H53.5z"/>
		<path class="st2" d="M105.2,88.1l-10.1,8.4c-1,0.9-1.4,2.3-0.7,3.2l9.3,13c1.1,1.5-0.4,3.9-2.4,3.9h-0.9c-0.7,0-1.3-0.3-1.6-0.8
			l-8.4-12.4c-0.7-1-2.3-1.1-3.4-0.2l-1.7,1.4c-0.5,0.4-0.9,1-1,1.7l-1.4,7.9c-0.2,1.3-1.5,2.3-2.8,2.3h-0.6c-1.3,0-2.2-1.1-1.9-2.3
			l4.9-27.9c0.2-1.3,1.5-2.3,2.8-2.3h0.6c1.3,0,2.2,1.1,1.9,2.3l-1.3,7.3c-0.4,2.1,2,3.1,3.7,1.6l12.3-10.6c0.5-0.4,1.2-0.7,1.8-0.7
			h0C106.4,84.1,107,86.7,105.2,88.1z"/>
		<path class="st2" d="M138.7,86.5c1.3,1.2,2.2,2.8,2.6,4.6c0.4,1.5-1.1,3.2-2.7,3.2H138c-1,0-1.7-0.6-1.9-1.5c-0.3-1.4-1-2.4-2-3.2
			c-1.3-1-3.1-1.5-5.4-1.5c-3.4,0-6.2,1.1-8.3,3.5c-2,2.1-3.2,5-3.9,8.8c-0.7,3.8-0.4,6.8,0.8,8.9c1.3,2.2,3.8,3.3,7.3,3.3
			c2.3,0,4.3-0.6,6-1.7c1.4-1,2.5-2.3,3.5-4c0.5-0.9,1.5-1.6,2.5-1.6h0.4c1.6,0,2.5,1.6,1.7,3.1c-1.3,2.4-3.1,4.3-5.2,5.8
			c-2.9,2-6,3-9.6,3c-5.4,0-9.2-1.7-11.2-5.1c-1.8-2.9-2.3-6.8-1.4-11.8c0.8-4.8,2.7-8.8,5.7-11.8c3.3-3.5,7.6-5.2,12.8-5.2
			C133.5,83.5,136.5,84.5,138.7,86.5z"/>
		<path class="st2" d="M153.8,86.5l-1.6,8.9c-0.2,1.3,0.6,2.3,1.9,2.3H166c1.3,0,2.5-1.1,2.8-2.3l1.6-8.9c0.2-1.3,1.5-2.3,2.8-2.3
			h0.6c1.3,0,2.2,1.1,1.9,2.3l-4.9,27.9c-0.2,1.3-1.5,2.3-2.8,2.3h-0.6c-1.3,0-2.2-1.1-1.9-2.3l1.7-9.7c0.2-1.3-0.6-2.3-1.9-2.3
			h-11.8c-1.3,0-2.5,1.1-2.8,2.3l-1.7,9.7c-0.2,1.3-1.5,2.3-2.8,2.3h-0.6c-1.3,0-2.2-1.1-1.9-2.3l4.9-27.9c0.2-1.3,1.5-2.3,2.8-2.3
			h0.6C153.1,84.1,154,85.2,153.8,86.5z"/>
		<path class="st2" d="M198.1,85.6l5.8,27.9c0.3,1.5-1.1,3.2-2.7,3.2h-0.6c-1,0-1.8-0.6-1.9-1.5l-1-5.1c-0.2-0.9-0.9-1.5-1.9-1.5
			h-10.4c-1,0-2,0.6-2.5,1.5l-2.7,5.1c-0.5,0.9-1.5,1.5-2.5,1.5h-0.6c-1.6,0-2.5-1.6-1.6-3.2l15.5-27.9c0.5-0.9,1.5-1.5,2.5-1.5h2.8
			C197.1,84.1,197.9,84.7,198.1,85.6z M193.1,104.1c1.6,0,3-1.6,2.8-3.1l-2-11.1h-0.2l-6,11.1c-0.8,1.5,0,3.1,1.7,3.1H193.1z"/>
		<path class="st2" d="M218.3,86.5l-4.9,27.9c-0.2,1.3-1.5,2.3-2.8,2.3h-0.6c-1.3,0-2.2-1.1-1.9-2.3l4.9-27.9
			c0.2-1.3,1.5-2.3,2.8-2.3h0.6C217.7,84.1,218.6,85.2,218.3,86.5z"/>
		<path class="st2" d="M229.2,84.1c0.8,0,1.4,0.4,1.8,1l11.5,22.5h0.2l3.7-21.2c0.2-1.3,1.5-2.3,2.8-2.3h0.7c1.3,0,2.2,1.1,1.9,2.3
			l-4.9,27.9c-0.2,1.3-1.5,2.3-2.8,2.3h-1.6c-0.8,0-1.4-0.4-1.8-1l-11.6-22.8h-0.2l-3.7,21.5c-0.2,1.3-1.5,2.3-2.8,2.3h-0.6
			c-1.3,0-2.2-1.1-1.9-2.3l4.9-27.9c0.2-1.3,1.5-2.3,2.8-2.3H229.2z"/>
	</g>
</g>
</svg>
