<?xml version="1.0" encoding="UTF-8"?>
<svg width="20px" height="20px" viewBox="0 0 20 20" version="1.1" xmlns="http://www.w3.org/2000/svg" xmlns:xlink="http://www.w3.org/1999/xlink">
    <!-- Generator: Sketch 48.1 (47250) - http://www.bohemiancoding.com/sketch -->
    <title>Group 8</title>
    <desc>Created with Sketch.</desc>
    <defs></defs>
    <g id="区块交易查看_马拉松专栏_查看英文证书" stroke="none" stroke-width="1" fill="none" fill-rule="evenodd" transform="translate(-1063.000000, -137.000000)">
        <g id="Group-7" transform="translate(1048.000000, 125.000000)" fill="#D3D3D3">
            <g id="Group-10">
                <g id="Group-8">
                    <g id="Group-18" transform="translate(15.000000, 12.000000)">
                        <g id="Group-12">
                            <path d="M1,1 L1,19 L19,19 L19,1 L1,1 Z M0,0 L20,0 L20,20 L0,20 L0,0 Z" id="Rectangle-5" fill-rule="nonzero"></path>
                            <polygon id="Path-3" fill-rule="nonzero" points="12.085695 7.16522261 12.085695 0.949876666 13.085695 0.949876666 13.085695 4.70934608 14.4723063 3.28897783 16.0462835 4.77668699 16.0462835 0.813529223 17.0462835 0.813529223 17.0462835 7.0978817 14.5004996 4.69162964"></polygon>
                            <path d="M3.51492437,8 L9.98131092,8 L9.98131092,9.17226891 L4.88887395,9.17226891 L4.88887395,11.7941176 L9.67878992,11.7941176 L9.67878992,12.9663866 L4.88887395,12.9663866 L4.88887395,15.8277311 L10.1955966,15.8277311 L10.1955966,17 L3.51492437,17 L3.51492437,8 Z M14.7712269,10.3067227 C16.3930837,10.3067227 17.204,11.1974701 17.204,12.9789916 L17.204,17 L15.8678655,17 L15.8678655,13.092437 C15.8678655,11.9831877 15.3594673,11.4285714 14.3426555,11.4285714 C13.9476955,11.4285714 13.6157661,11.5630239 13.3468571,11.8319328 C13.0359312,12.1428587 12.8552608,12.5588209 12.8048403,13.0798319 L12.8048403,17 L11.4687059,17 L11.4687059,10.4831933 L12.8048403,10.4831933 L12.8048403,11.289916 C13.048539,10.9705866 13.3384521,10.7268916 13.6745882,10.5588235 C13.9855142,10.3907555 14.3510567,10.3067227 14.7712269,10.3067227 Z" id="En"></path>
                        </g>
                    </g>
                </g>
            </g>
        </g>
    </g>
</svg>